G04 EAGLE Gerber RS-274X export*
G75*
%MOMM*%
%FSLAX34Y34*%
%LPD*%
%INBottom Copper*%
%IPPOS*%
%AMOC8*
5,1,8,0,0,1.08239X$1,22.5*%
G01*
G04 Define Apertures*
%ADD10C,2.500000*%
%ADD11C,2.250000*%
%ADD12R,1.398000X1.398000*%
%ADD13C,1.398000*%
%ADD14R,1.268000X1.268000*%
%ADD15C,1.268000*%
%ADD16C,0.708000*%
%ADD17C,1.450000*%
%ADD18C,1.200000*%
%ADD19C,2.550000*%
%ADD20R,1.346200X1.346200*%
%ADD21C,1.346200*%
%ADD22C,0.756400*%
G36*
X55876Y686776D02*
X55750Y687897D01*
X55750Y700950D01*
X74850Y700950D01*
X74850Y687897D01*
X74724Y686776D01*
X74350Y685709D01*
X73749Y684751D01*
X72949Y683952D01*
X71991Y683350D01*
X70924Y682976D01*
X69803Y682850D01*
X60797Y682850D01*
X59676Y682976D01*
X58609Y683350D01*
X57651Y683952D01*
X56852Y684751D01*
X56250Y685709D01*
X55876Y686776D01*
G37*
G36*
X74850Y746850D02*
X55750Y746850D01*
X55750Y759903D01*
X55876Y761024D01*
X56250Y762091D01*
X56852Y763049D01*
X57651Y763849D01*
X58609Y764450D01*
X59676Y764824D01*
X60797Y764950D01*
X69803Y764950D01*
X70924Y764824D01*
X71991Y764450D01*
X72949Y763849D01*
X73749Y763049D01*
X74350Y762091D01*
X74724Y761024D01*
X74850Y759903D01*
X74850Y746850D01*
G37*
D10*
X179300Y914200D02*
X179300Y889200D01*
D11*
X119300Y890450D02*
X119300Y912950D01*
X138050Y854700D02*
X160550Y854700D01*
D12*
X1511300Y571500D03*
D13*
X1511300Y596900D03*
X1511300Y622300D03*
X1511300Y647700D03*
X1511300Y673100D03*
X1511300Y698500D03*
X1511300Y723900D03*
X1511300Y749300D03*
X1511300Y774700D03*
X1511300Y800100D03*
X1511300Y825500D03*
X1511300Y850900D03*
X1511300Y876300D03*
X1511300Y901700D03*
D14*
X1224130Y152400D03*
D15*
X1198730Y127000D03*
X1224130Y101600D03*
D14*
X1224130Y304800D03*
D15*
X1198730Y279400D03*
X1224130Y254000D03*
D14*
X1452730Y152400D03*
D15*
X1427330Y127000D03*
X1452730Y101600D03*
D14*
X995530Y152400D03*
D15*
X970130Y127000D03*
X995530Y101600D03*
D14*
X1452730Y304800D03*
D15*
X1427330Y279400D03*
X1452730Y254000D03*
D14*
X995530Y304800D03*
D15*
X970130Y279400D03*
X995530Y254000D03*
D16*
X550150Y758065D03*
X550150Y776415D03*
X559325Y748890D03*
X559325Y767240D03*
X559325Y785590D03*
X568500Y758065D03*
X568500Y776415D03*
X577675Y748890D03*
X577675Y767240D03*
X577675Y785590D03*
X586850Y758065D03*
X586850Y776415D03*
D17*
X92300Y748900D03*
X92300Y698900D03*
D18*
X65300Y758900D03*
X65300Y688900D03*
D19*
X294640Y172720D03*
X294640Y121920D03*
X243840Y172720D03*
X243840Y121920D03*
X294640Y340360D03*
X294640Y289560D03*
X243840Y340360D03*
X243840Y289560D03*
D20*
X673100Y601980D03*
D21*
X784860Y601980D03*
D20*
X995680Y546100D03*
D21*
X995680Y434340D03*
D20*
X1031240Y952500D03*
D21*
X1031240Y840740D03*
D20*
X965200Y673100D03*
D21*
X1076960Y673100D03*
D20*
X1300480Y558800D03*
D21*
X1300480Y447040D03*
D20*
X1221740Y558800D03*
D21*
X1221740Y447040D03*
D20*
X1338580Y558800D03*
D21*
X1338580Y447040D03*
D20*
X1374140Y558800D03*
D21*
X1374140Y447040D03*
D20*
X1262380Y558800D03*
D21*
X1262380Y447040D03*
D20*
X243840Y701040D03*
D21*
X355600Y701040D03*
D20*
X1409700Y558800D03*
D21*
X1409700Y447040D03*
D20*
X383540Y581660D03*
D21*
X495300Y581660D03*
D20*
X452120Y525653D03*
D21*
X563880Y525653D03*
D22*
X342900Y211586D03*
X844400Y399768D03*
X521213Y177217D03*
X248920Y651792D03*
X519870Y352350D03*
X590110Y358850D03*
X319026Y728980D03*
X122934Y586740D03*
X810756Y520700D03*
X314936Y762000D03*
X444500Y428230D03*
X488176Y665480D03*
X480060Y889000D03*
X152400Y642620D03*
X227612Y713740D03*
X584200Y220980D03*
X1452880Y165100D03*
X1224280Y170180D03*
X995680Y170180D03*
X995680Y322580D03*
X1224280Y322580D03*
X1452880Y322580D03*
X1480820Y622300D03*
X218440Y472440D03*
X381000Y774700D03*
X126519Y639599D03*
X510822Y583212D03*
X741680Y185420D03*
X565424Y538114D03*
M02*
