G04 EAGLE Gerber RS-274X export*
G75*
%MOMM*%
%FSLAX34Y34*%
%LPD*%
%IN*%
%IPPOS*%
%AMOC8*
5,1,8,0,0,1.08239X$1,22.5*%
G01*
G04 Define Apertures*
%ADD10C,0.254000*%
D10*
X0Y0D02*
X1600000Y0D01*
X1600000Y1000000D01*
X0Y1000000D01*
X0Y0D01*
X58800Y688900D02*
X58811Y688639D01*
X58846Y688379D01*
X58902Y688124D01*
X58981Y687874D01*
X59081Y687632D01*
X59202Y687400D01*
X59343Y687179D01*
X59502Y686972D01*
X59679Y686779D01*
X59872Y686602D01*
X60079Y686443D01*
X60300Y686302D01*
X60532Y686181D01*
X60774Y686081D01*
X61024Y686002D01*
X61279Y685946D01*
X61539Y685911D01*
X61800Y685900D01*
X68800Y685900D01*
X69061Y685911D01*
X69321Y685946D01*
X69576Y686002D01*
X69826Y686081D01*
X70068Y686181D01*
X70300Y686302D01*
X70521Y686443D01*
X70728Y686602D01*
X70921Y686779D01*
X71098Y686972D01*
X71257Y687179D01*
X71398Y687400D01*
X71519Y687632D01*
X71619Y687874D01*
X71698Y688124D01*
X71754Y688379D01*
X71789Y688639D01*
X71800Y688900D01*
X71789Y689161D01*
X71754Y689421D01*
X71698Y689676D01*
X71619Y689926D01*
X71519Y690168D01*
X71398Y690400D01*
X71257Y690621D01*
X71098Y690828D01*
X70921Y691021D01*
X70728Y691198D01*
X70521Y691357D01*
X70300Y691498D01*
X70068Y691619D01*
X69826Y691719D01*
X69576Y691798D01*
X69321Y691854D01*
X69061Y691889D01*
X68800Y691900D01*
X61800Y691900D01*
X61539Y691889D01*
X61279Y691854D01*
X61024Y691798D01*
X60774Y691719D01*
X60532Y691619D01*
X60300Y691498D01*
X60079Y691357D01*
X59872Y691198D01*
X59679Y691021D01*
X59502Y690828D01*
X59343Y690621D01*
X59202Y690400D01*
X59081Y690168D01*
X58981Y689926D01*
X58902Y689676D01*
X58846Y689421D01*
X58811Y689161D01*
X58800Y688900D01*
X58800Y758900D02*
X58811Y758639D01*
X58846Y758379D01*
X58902Y758124D01*
X58981Y757874D01*
X59081Y757632D01*
X59202Y757400D01*
X59343Y757179D01*
X59502Y756972D01*
X59679Y756779D01*
X59872Y756602D01*
X60079Y756443D01*
X60300Y756302D01*
X60532Y756181D01*
X60774Y756081D01*
X61024Y756002D01*
X61279Y755946D01*
X61539Y755911D01*
X61800Y755900D01*
X68800Y755900D01*
X69061Y755911D01*
X69321Y755946D01*
X69576Y756002D01*
X69826Y756081D01*
X70068Y756181D01*
X70300Y756302D01*
X70521Y756443D01*
X70728Y756602D01*
X70921Y756779D01*
X71098Y756972D01*
X71257Y757179D01*
X71398Y757400D01*
X71519Y757632D01*
X71619Y757874D01*
X71698Y758124D01*
X71754Y758379D01*
X71789Y758639D01*
X71800Y758900D01*
X71789Y759161D01*
X71754Y759421D01*
X71698Y759676D01*
X71619Y759926D01*
X71519Y760168D01*
X71398Y760400D01*
X71257Y760621D01*
X71098Y760828D01*
X70921Y761021D01*
X70728Y761198D01*
X70521Y761357D01*
X70300Y761498D01*
X70068Y761619D01*
X69826Y761719D01*
X69576Y761798D01*
X69321Y761854D01*
X69061Y761889D01*
X68800Y761900D01*
X61800Y761900D01*
X61539Y761889D01*
X61279Y761854D01*
X61024Y761798D01*
X60774Y761719D01*
X60532Y761619D01*
X60300Y761498D01*
X60079Y761357D01*
X59872Y761198D01*
X59679Y761021D01*
X59502Y760828D01*
X59343Y760621D01*
X59202Y760400D01*
X59081Y760168D01*
X58981Y759926D01*
X58902Y759676D01*
X58846Y759421D01*
X58811Y759161D01*
X58800Y758900D01*
X134300Y849700D02*
X164300Y849700D01*
X164300Y859700D01*
X134300Y859700D01*
X134300Y849700D01*
X174300Y884200D02*
X184300Y884200D01*
X184300Y919200D01*
X174300Y919200D01*
X174300Y884200D01*
X114300Y886700D02*
X124300Y886700D01*
X124300Y916700D01*
X114300Y916700D01*
X114300Y886700D01*
M02*
