G04 EAGLE Gerber RS-274X export*
G75*
%MOMM*%
%FSLAX34Y34*%
%LPD*%
%INSoldermask Bottom*%
%IPPOS*%
%AMOC8*
5,1,8,0,0,1.08239X$1,22.5*%
G01*
G04 Define Apertures*
%ADD10C,2.703200*%
%ADD11C,2.453200*%
%ADD12R,1.601200X1.601200*%
%ADD13C,1.601200*%
%ADD14R,1.471200X1.471200*%
%ADD15C,1.471200*%
%ADD16C,0.911200*%
%ADD17C,0.788500*%
%ADD18C,2.753200*%
%ADD19R,1.549400X1.549400*%
%ADD20C,1.549400*%
%ADD21C,0.959600*%
G36*
X55224Y686791D02*
X55115Y687898D01*
X55115Y701585D01*
X75485Y701585D01*
X75485Y687898D01*
X75376Y686791D01*
X75052Y685724D01*
X74527Y684741D01*
X73820Y683880D01*
X72959Y683173D01*
X71976Y682648D01*
X70909Y682324D01*
X69802Y682215D01*
X60798Y682215D01*
X59691Y682324D01*
X58624Y682648D01*
X57641Y683173D01*
X56780Y683880D01*
X56073Y684741D01*
X55548Y685724D01*
X55224Y686791D01*
G37*
G36*
X75485Y746215D02*
X55115Y746215D01*
X55115Y759902D01*
X55224Y761009D01*
X55548Y762076D01*
X56073Y763059D01*
X56780Y763920D01*
X57641Y764627D01*
X58624Y765152D01*
X59691Y765476D01*
X60798Y765585D01*
X69802Y765585D01*
X70909Y765476D01*
X71976Y765152D01*
X72959Y764627D01*
X73820Y763920D01*
X74527Y763059D01*
X75052Y762076D01*
X75376Y761009D01*
X75485Y759902D01*
X75485Y746215D01*
G37*
D10*
X179300Y914200D02*
X179300Y889200D01*
D11*
X119300Y890450D02*
X119300Y912950D01*
X138050Y854700D02*
X160550Y854700D01*
D12*
X1511300Y571500D03*
D13*
X1511300Y596900D03*
X1511300Y622300D03*
X1511300Y647700D03*
X1511300Y673100D03*
X1511300Y698500D03*
X1511300Y723900D03*
X1511300Y749300D03*
X1511300Y774700D03*
X1511300Y800100D03*
X1511300Y825500D03*
X1511300Y850900D03*
X1511300Y876300D03*
X1511300Y901700D03*
D14*
X1224130Y152400D03*
D15*
X1198730Y127000D03*
X1224130Y101600D03*
D14*
X1224130Y304800D03*
D15*
X1198730Y279400D03*
X1224130Y254000D03*
D14*
X1452730Y152400D03*
D15*
X1427330Y127000D03*
X1452730Y101600D03*
D14*
X995530Y152400D03*
D15*
X970130Y127000D03*
X995530Y101600D03*
D14*
X1452730Y304800D03*
D15*
X1427330Y279400D03*
X1452730Y254000D03*
D14*
X995530Y304800D03*
D15*
X970130Y279400D03*
X995530Y254000D03*
D16*
X550150Y758065D03*
X550150Y776415D03*
X559325Y748890D03*
X559325Y767240D03*
X559325Y785590D03*
X568500Y758065D03*
X568500Y776415D03*
X577675Y748890D03*
X577675Y767240D03*
X577675Y785590D03*
X586850Y758065D03*
X586850Y776415D03*
D17*
X88357Y748900D02*
X88359Y749025D01*
X88365Y749150D01*
X88375Y749275D01*
X88389Y749399D01*
X88407Y749523D01*
X88428Y749646D01*
X88454Y749769D01*
X88483Y749890D01*
X88517Y750011D01*
X88554Y750130D01*
X88595Y750249D01*
X88639Y750365D01*
X88688Y750481D01*
X88740Y750595D01*
X88795Y750707D01*
X88854Y750817D01*
X88917Y750925D01*
X88983Y751032D01*
X89052Y751136D01*
X89125Y751238D01*
X89201Y751337D01*
X89279Y751435D01*
X89361Y751529D01*
X89446Y751621D01*
X89534Y751710D01*
X89625Y751796D01*
X89718Y751880D01*
X89814Y751960D01*
X89912Y752038D01*
X90013Y752112D01*
X90116Y752183D01*
X90221Y752250D01*
X90329Y752315D01*
X90438Y752376D01*
X90549Y752433D01*
X90662Y752487D01*
X90777Y752537D01*
X90893Y752583D01*
X91010Y752626D01*
X91129Y752665D01*
X91249Y752700D01*
X91370Y752732D01*
X91492Y752759D01*
X91615Y752783D01*
X91739Y752803D01*
X91863Y752819D01*
X91988Y752831D01*
X92112Y752839D01*
X92237Y752843D01*
X92363Y752843D01*
X92488Y752839D01*
X92612Y752831D01*
X92737Y752819D01*
X92861Y752803D01*
X92985Y752783D01*
X93108Y752759D01*
X93230Y752732D01*
X93351Y752700D01*
X93471Y752665D01*
X93590Y752626D01*
X93707Y752583D01*
X93823Y752537D01*
X93938Y752487D01*
X94051Y752433D01*
X94162Y752376D01*
X94272Y752315D01*
X94379Y752250D01*
X94484Y752183D01*
X94587Y752112D01*
X94688Y752038D01*
X94786Y751960D01*
X94882Y751880D01*
X94975Y751796D01*
X95066Y751710D01*
X95154Y751621D01*
X95239Y751529D01*
X95321Y751435D01*
X95399Y751337D01*
X95475Y751238D01*
X95548Y751136D01*
X95617Y751032D01*
X95683Y750925D01*
X95746Y750817D01*
X95805Y750707D01*
X95860Y750595D01*
X95912Y750481D01*
X95961Y750365D01*
X96005Y750249D01*
X96046Y750130D01*
X96083Y750011D01*
X96117Y749890D01*
X96146Y749769D01*
X96172Y749646D01*
X96193Y749523D01*
X96211Y749399D01*
X96225Y749275D01*
X96235Y749150D01*
X96241Y749025D01*
X96243Y748900D01*
X96241Y748775D01*
X96235Y748650D01*
X96225Y748525D01*
X96211Y748401D01*
X96193Y748277D01*
X96172Y748154D01*
X96146Y748031D01*
X96117Y747910D01*
X96083Y747789D01*
X96046Y747670D01*
X96005Y747551D01*
X95961Y747435D01*
X95912Y747319D01*
X95860Y747205D01*
X95805Y747093D01*
X95746Y746983D01*
X95683Y746875D01*
X95617Y746768D01*
X95548Y746664D01*
X95475Y746562D01*
X95399Y746463D01*
X95321Y746365D01*
X95239Y746271D01*
X95154Y746179D01*
X95066Y746090D01*
X94975Y746004D01*
X94882Y745920D01*
X94786Y745840D01*
X94688Y745762D01*
X94587Y745688D01*
X94484Y745617D01*
X94379Y745550D01*
X94271Y745485D01*
X94162Y745424D01*
X94051Y745367D01*
X93938Y745313D01*
X93823Y745263D01*
X93707Y745217D01*
X93590Y745174D01*
X93471Y745135D01*
X93351Y745100D01*
X93230Y745068D01*
X93108Y745041D01*
X92985Y745017D01*
X92861Y744997D01*
X92737Y744981D01*
X92612Y744969D01*
X92488Y744961D01*
X92363Y744957D01*
X92237Y744957D01*
X92112Y744961D01*
X91988Y744969D01*
X91863Y744981D01*
X91739Y744997D01*
X91615Y745017D01*
X91492Y745041D01*
X91370Y745068D01*
X91249Y745100D01*
X91129Y745135D01*
X91010Y745174D01*
X90893Y745217D01*
X90777Y745263D01*
X90662Y745313D01*
X90549Y745367D01*
X90438Y745424D01*
X90328Y745485D01*
X90221Y745550D01*
X90116Y745617D01*
X90013Y745688D01*
X89912Y745762D01*
X89814Y745840D01*
X89718Y745920D01*
X89625Y746004D01*
X89534Y746090D01*
X89446Y746179D01*
X89361Y746271D01*
X89279Y746365D01*
X89201Y746463D01*
X89125Y746562D01*
X89052Y746664D01*
X88983Y746768D01*
X88917Y746875D01*
X88854Y746983D01*
X88795Y747093D01*
X88740Y747205D01*
X88688Y747319D01*
X88639Y747435D01*
X88595Y747551D01*
X88554Y747670D01*
X88517Y747789D01*
X88483Y747910D01*
X88454Y748031D01*
X88428Y748154D01*
X88407Y748277D01*
X88389Y748401D01*
X88375Y748525D01*
X88365Y748650D01*
X88359Y748775D01*
X88357Y748900D01*
X88357Y698900D02*
X88359Y699025D01*
X88365Y699150D01*
X88375Y699275D01*
X88389Y699399D01*
X88407Y699523D01*
X88428Y699646D01*
X88454Y699769D01*
X88483Y699890D01*
X88517Y700011D01*
X88554Y700130D01*
X88595Y700249D01*
X88639Y700365D01*
X88688Y700481D01*
X88740Y700595D01*
X88795Y700707D01*
X88854Y700817D01*
X88917Y700925D01*
X88983Y701032D01*
X89052Y701136D01*
X89125Y701238D01*
X89201Y701337D01*
X89279Y701435D01*
X89361Y701529D01*
X89446Y701621D01*
X89534Y701710D01*
X89625Y701796D01*
X89718Y701880D01*
X89814Y701960D01*
X89912Y702038D01*
X90013Y702112D01*
X90116Y702183D01*
X90221Y702250D01*
X90329Y702315D01*
X90438Y702376D01*
X90549Y702433D01*
X90662Y702487D01*
X90777Y702537D01*
X90893Y702583D01*
X91010Y702626D01*
X91129Y702665D01*
X91249Y702700D01*
X91370Y702732D01*
X91492Y702759D01*
X91615Y702783D01*
X91739Y702803D01*
X91863Y702819D01*
X91988Y702831D01*
X92112Y702839D01*
X92237Y702843D01*
X92363Y702843D01*
X92488Y702839D01*
X92612Y702831D01*
X92737Y702819D01*
X92861Y702803D01*
X92985Y702783D01*
X93108Y702759D01*
X93230Y702732D01*
X93351Y702700D01*
X93471Y702665D01*
X93590Y702626D01*
X93707Y702583D01*
X93823Y702537D01*
X93938Y702487D01*
X94051Y702433D01*
X94162Y702376D01*
X94272Y702315D01*
X94379Y702250D01*
X94484Y702183D01*
X94587Y702112D01*
X94688Y702038D01*
X94786Y701960D01*
X94882Y701880D01*
X94975Y701796D01*
X95066Y701710D01*
X95154Y701621D01*
X95239Y701529D01*
X95321Y701435D01*
X95399Y701337D01*
X95475Y701238D01*
X95548Y701136D01*
X95617Y701032D01*
X95683Y700925D01*
X95746Y700817D01*
X95805Y700707D01*
X95860Y700595D01*
X95912Y700481D01*
X95961Y700365D01*
X96005Y700249D01*
X96046Y700130D01*
X96083Y700011D01*
X96117Y699890D01*
X96146Y699769D01*
X96172Y699646D01*
X96193Y699523D01*
X96211Y699399D01*
X96225Y699275D01*
X96235Y699150D01*
X96241Y699025D01*
X96243Y698900D01*
X96241Y698775D01*
X96235Y698650D01*
X96225Y698525D01*
X96211Y698401D01*
X96193Y698277D01*
X96172Y698154D01*
X96146Y698031D01*
X96117Y697910D01*
X96083Y697789D01*
X96046Y697670D01*
X96005Y697551D01*
X95961Y697435D01*
X95912Y697319D01*
X95860Y697205D01*
X95805Y697093D01*
X95746Y696983D01*
X95683Y696875D01*
X95617Y696768D01*
X95548Y696664D01*
X95475Y696562D01*
X95399Y696463D01*
X95321Y696365D01*
X95239Y696271D01*
X95154Y696179D01*
X95066Y696090D01*
X94975Y696004D01*
X94882Y695920D01*
X94786Y695840D01*
X94688Y695762D01*
X94587Y695688D01*
X94484Y695617D01*
X94379Y695550D01*
X94271Y695485D01*
X94162Y695424D01*
X94051Y695367D01*
X93938Y695313D01*
X93823Y695263D01*
X93707Y695217D01*
X93590Y695174D01*
X93471Y695135D01*
X93351Y695100D01*
X93230Y695068D01*
X93108Y695041D01*
X92985Y695017D01*
X92861Y694997D01*
X92737Y694981D01*
X92612Y694969D01*
X92488Y694961D01*
X92363Y694957D01*
X92237Y694957D01*
X92112Y694961D01*
X91988Y694969D01*
X91863Y694981D01*
X91739Y694997D01*
X91615Y695017D01*
X91492Y695041D01*
X91370Y695068D01*
X91249Y695100D01*
X91129Y695135D01*
X91010Y695174D01*
X90893Y695217D01*
X90777Y695263D01*
X90662Y695313D01*
X90549Y695367D01*
X90438Y695424D01*
X90328Y695485D01*
X90221Y695550D01*
X90116Y695617D01*
X90013Y695688D01*
X89912Y695762D01*
X89814Y695840D01*
X89718Y695920D01*
X89625Y696004D01*
X89534Y696090D01*
X89446Y696179D01*
X89361Y696271D01*
X89279Y696365D01*
X89201Y696463D01*
X89125Y696562D01*
X89052Y696664D01*
X88983Y696768D01*
X88917Y696875D01*
X88854Y696983D01*
X88795Y697093D01*
X88740Y697205D01*
X88688Y697319D01*
X88639Y697435D01*
X88595Y697551D01*
X88554Y697670D01*
X88517Y697789D01*
X88483Y697910D01*
X88454Y698031D01*
X88428Y698154D01*
X88407Y698277D01*
X88389Y698401D01*
X88375Y698525D01*
X88365Y698650D01*
X88359Y698775D01*
X88357Y698900D01*
D18*
X294640Y172720D03*
X294640Y121920D03*
X243840Y172720D03*
X243840Y121920D03*
X294640Y340360D03*
X294640Y289560D03*
X243840Y340360D03*
X243840Y289560D03*
D19*
X673100Y601980D03*
D20*
X784860Y601980D03*
D19*
X995680Y546100D03*
D20*
X995680Y434340D03*
D19*
X1031240Y952500D03*
D20*
X1031240Y840740D03*
D19*
X965200Y673100D03*
D20*
X1076960Y673100D03*
D19*
X1300480Y558800D03*
D20*
X1300480Y447040D03*
D19*
X1221740Y558800D03*
D20*
X1221740Y447040D03*
D19*
X1338580Y558800D03*
D20*
X1338580Y447040D03*
D19*
X1374140Y558800D03*
D20*
X1374140Y447040D03*
D19*
X1262380Y558800D03*
D20*
X1262380Y447040D03*
D19*
X243840Y701040D03*
D20*
X355600Y701040D03*
D19*
X1409700Y558800D03*
D20*
X1409700Y447040D03*
D19*
X383540Y581660D03*
D20*
X495300Y581660D03*
D19*
X452120Y525653D03*
D20*
X563880Y525653D03*
D21*
X342900Y211586D03*
X844400Y399768D03*
X521213Y177217D03*
X248920Y651792D03*
X519870Y352350D03*
X590110Y358850D03*
X319026Y728980D03*
X122934Y586740D03*
X810756Y520700D03*
X314936Y762000D03*
X444500Y428230D03*
X488176Y665480D03*
X480060Y889000D03*
X152400Y642620D03*
X227612Y713740D03*
X584200Y220980D03*
X1452880Y165100D03*
X1224280Y170180D03*
X995680Y170180D03*
X995680Y322580D03*
X1224280Y322580D03*
X1452880Y322580D03*
X1480820Y622300D03*
X218440Y472440D03*
X381000Y774700D03*
X126519Y639599D03*
X510822Y583212D03*
X741680Y185420D03*
X565424Y538114D03*
M02*
