G04 EAGLE Gerber RS-274X export*
G75*
%MOMM*%
%FSLAX34Y34*%
%LPD*%
%INSolderpaste Top*%
%IPPOS*%
%AMOC8*
5,1,8,0,0,1.08239X$1,22.5*%
G01*
G04 Define Apertures*
%ADD10R,1.050000X1.380000*%
%ADD11R,0.970000X0.960000*%
%ADD12R,1.100000X1.000000*%
%ADD13R,0.930000X0.890000*%
%ADD14R,0.960000X0.970000*%
%ADD15R,0.890000X0.930000*%
%ADD16R,1.000000X1.020000*%
%ADD17R,0.508000X0.406400*%
%ADD18R,0.508000X0.558800*%
%ADD19R,0.299200X0.401600*%
%ADD20R,0.970000X1.730000*%
%ADD21R,0.930000X0.870000*%
%ADD22R,0.870000X0.930000*%
%ADD23R,0.930000X0.970000*%
%ADD24R,0.711200X0.838200*%
%ADD25R,0.900000X0.970000*%
%ADD26R,1.400000X2.100000*%
%ADD27R,0.673100X0.254000*%
%ADD28C,0.100000*%
%ADD29R,1.950000X1.550000*%
%ADD30R,0.900000X2.000000*%
%ADD31R,2.000000X0.900000*%
%ADD32R,1.330000X1.330000*%
%ADD33R,2.118719X2.118719*%
%ADD34R,0.254000X0.673100*%
%ADD35R,0.673100X0.355600*%
%ADD36R,1.206400X0.400000*%
%ADD37R,0.449200X0.802400*%
%ADD38R,1.456400X0.800000*%
%ADD39R,1.456400X3.100000*%
%ADD40R,0.508000X1.676400*%
%ADD41R,1.350000X0.400000*%
%ADD42R,1.900000X1.500000*%
%ADD43C,0.230000*%
%ADD44R,0.970000X0.900000*%
G36*
X211888Y747401D02*
X211940Y747000D01*
X211888Y746599D01*
X211733Y746225D01*
X211486Y745904D01*
X211165Y745657D01*
X210791Y745502D01*
X210393Y745450D01*
X202340Y745450D01*
X202340Y748550D01*
X210393Y748550D01*
X210791Y748498D01*
X211165Y748343D01*
X211486Y748096D01*
X211733Y747775D01*
X211888Y747401D01*
G37*
G36*
X211888Y752401D02*
X211940Y752000D01*
X211888Y751599D01*
X211733Y751225D01*
X211486Y750904D01*
X211165Y750657D01*
X210791Y750502D01*
X210393Y750450D01*
X202340Y750450D01*
X202340Y753550D01*
X210393Y753550D01*
X210791Y753498D01*
X211165Y753343D01*
X211486Y753096D01*
X211733Y752775D01*
X211888Y752401D01*
G37*
G36*
X211888Y757401D02*
X211940Y757000D01*
X211888Y756599D01*
X211733Y756225D01*
X211486Y755904D01*
X211165Y755657D01*
X210791Y755502D01*
X210393Y755450D01*
X202340Y755450D01*
X202340Y758550D01*
X210393Y758550D01*
X210791Y758498D01*
X211165Y758343D01*
X211486Y758096D01*
X211733Y757775D01*
X211888Y757401D01*
G37*
G36*
X211888Y762401D02*
X211940Y762000D01*
X211888Y761599D01*
X211733Y761225D01*
X211486Y760904D01*
X211165Y760657D01*
X210791Y760502D01*
X210393Y760450D01*
X202340Y760450D01*
X202340Y763550D01*
X210393Y763550D01*
X210791Y763498D01*
X211165Y763343D01*
X211486Y763096D01*
X211733Y762775D01*
X211888Y762401D01*
G37*
G36*
X211888Y767401D02*
X211940Y767000D01*
X211888Y766599D01*
X211733Y766225D01*
X211486Y765904D01*
X211165Y765657D01*
X210791Y765502D01*
X210393Y765450D01*
X202340Y765450D01*
X202340Y768550D01*
X210393Y768550D01*
X210791Y768498D01*
X211165Y768343D01*
X211486Y768096D01*
X211733Y767775D01*
X211888Y767401D01*
G37*
G36*
X211888Y772401D02*
X211940Y772000D01*
X211888Y771599D01*
X211733Y771225D01*
X211486Y770904D01*
X211165Y770657D01*
X210791Y770502D01*
X210393Y770450D01*
X202340Y770450D01*
X202340Y773550D01*
X210393Y773550D01*
X210791Y773498D01*
X211165Y773343D01*
X211486Y773096D01*
X211733Y772775D01*
X211888Y772401D01*
G37*
G36*
X211888Y777401D02*
X211940Y777000D01*
X211888Y776599D01*
X211733Y776225D01*
X211486Y775904D01*
X211165Y775657D01*
X210791Y775502D01*
X210393Y775450D01*
X202340Y775450D01*
X202340Y778550D01*
X210393Y778550D01*
X210791Y778498D01*
X211165Y778343D01*
X211486Y778096D01*
X211733Y777775D01*
X211888Y777401D01*
G37*
G36*
X217638Y741651D02*
X217690Y741253D01*
X217690Y733200D01*
X214590Y733200D01*
X214590Y741253D01*
X214642Y741651D01*
X214797Y742025D01*
X215044Y742346D01*
X215365Y742593D01*
X215739Y742748D01*
X216140Y742800D01*
X216541Y742748D01*
X216915Y742593D01*
X217236Y742346D01*
X217483Y742025D01*
X217638Y741651D01*
G37*
G36*
X214590Y790800D02*
X217690Y790800D01*
X217690Y782747D01*
X217638Y782349D01*
X217483Y781975D01*
X217236Y781654D01*
X216915Y781407D01*
X216541Y781252D01*
X216140Y781200D01*
X215739Y781252D01*
X215365Y781407D01*
X215044Y781654D01*
X214797Y781975D01*
X214642Y782349D01*
X214590Y782747D01*
X214590Y790800D01*
G37*
G36*
X222638Y741651D02*
X222690Y741253D01*
X222690Y733200D01*
X219590Y733200D01*
X219590Y741253D01*
X219642Y741651D01*
X219797Y742025D01*
X220044Y742346D01*
X220365Y742593D01*
X220739Y742748D01*
X221140Y742800D01*
X221541Y742748D01*
X221915Y742593D01*
X222236Y742346D01*
X222483Y742025D01*
X222638Y741651D01*
G37*
G36*
X219590Y790800D02*
X222690Y790800D01*
X222690Y782747D01*
X222638Y782349D01*
X222483Y781975D01*
X222236Y781654D01*
X221915Y781407D01*
X221541Y781252D01*
X221140Y781200D01*
X220739Y781252D01*
X220365Y781407D01*
X220044Y781654D01*
X219797Y781975D01*
X219642Y782349D01*
X219590Y782747D01*
X219590Y790800D01*
G37*
G36*
X227638Y741651D02*
X227690Y741253D01*
X227690Y733200D01*
X224590Y733200D01*
X224590Y741253D01*
X224642Y741651D01*
X224797Y742025D01*
X225044Y742346D01*
X225365Y742593D01*
X225739Y742748D01*
X226140Y742800D01*
X226541Y742748D01*
X226915Y742593D01*
X227236Y742346D01*
X227483Y742025D01*
X227638Y741651D01*
G37*
G36*
X224590Y790800D02*
X227690Y790800D01*
X227690Y782747D01*
X227638Y782349D01*
X227483Y781975D01*
X227236Y781654D01*
X226915Y781407D01*
X226541Y781252D01*
X226140Y781200D01*
X225739Y781252D01*
X225365Y781407D01*
X225044Y781654D01*
X224797Y781975D01*
X224642Y782349D01*
X224590Y782747D01*
X224590Y790800D01*
G37*
G36*
X232638Y741651D02*
X232690Y741253D01*
X232690Y733200D01*
X229590Y733200D01*
X229590Y741253D01*
X229642Y741651D01*
X229797Y742025D01*
X230044Y742346D01*
X230365Y742593D01*
X230739Y742748D01*
X231140Y742800D01*
X231541Y742748D01*
X231915Y742593D01*
X232236Y742346D01*
X232483Y742025D01*
X232638Y741651D01*
G37*
G36*
X229590Y790800D02*
X232690Y790800D01*
X232690Y782747D01*
X232638Y782349D01*
X232483Y781975D01*
X232236Y781654D01*
X231915Y781407D01*
X231541Y781252D01*
X231140Y781200D01*
X230739Y781252D01*
X230365Y781407D01*
X230044Y781654D01*
X229797Y781975D01*
X229642Y782349D01*
X229590Y782747D01*
X229590Y790800D01*
G37*
G36*
X237638Y741651D02*
X237690Y741253D01*
X237690Y733200D01*
X234590Y733200D01*
X234590Y741253D01*
X234642Y741651D01*
X234797Y742025D01*
X235044Y742346D01*
X235365Y742593D01*
X235739Y742748D01*
X236140Y742800D01*
X236541Y742748D01*
X236915Y742593D01*
X237236Y742346D01*
X237483Y742025D01*
X237638Y741651D01*
G37*
G36*
X234590Y790800D02*
X237690Y790800D01*
X237690Y782747D01*
X237638Y782349D01*
X237483Y781975D01*
X237236Y781654D01*
X236915Y781407D01*
X236541Y781252D01*
X236140Y781200D01*
X235739Y781252D01*
X235365Y781407D01*
X235044Y781654D01*
X234797Y781975D01*
X234642Y782349D01*
X234590Y782747D01*
X234590Y790800D01*
G37*
G36*
X242638Y741651D02*
X242690Y741253D01*
X242690Y733200D01*
X239590Y733200D01*
X239590Y741253D01*
X239642Y741651D01*
X239797Y742025D01*
X240044Y742346D01*
X240365Y742593D01*
X240739Y742748D01*
X241140Y742800D01*
X241541Y742748D01*
X241915Y742593D01*
X242236Y742346D01*
X242483Y742025D01*
X242638Y741651D01*
G37*
G36*
X239590Y790800D02*
X242690Y790800D01*
X242690Y782747D01*
X242638Y782349D01*
X242483Y781975D01*
X242236Y781654D01*
X241915Y781407D01*
X241541Y781252D01*
X241140Y781200D01*
X240739Y781252D01*
X240365Y781407D01*
X240044Y781654D01*
X239797Y781975D01*
X239642Y782349D01*
X239590Y782747D01*
X239590Y790800D01*
G37*
G36*
X247638Y741651D02*
X247690Y741253D01*
X247690Y733200D01*
X244590Y733200D01*
X244590Y741253D01*
X244642Y741651D01*
X244797Y742025D01*
X245044Y742346D01*
X245365Y742593D01*
X245739Y742748D01*
X246140Y742800D01*
X246541Y742748D01*
X246915Y742593D01*
X247236Y742346D01*
X247483Y742025D01*
X247638Y741651D01*
G37*
G36*
X244590Y790800D02*
X247690Y790800D01*
X247690Y782747D01*
X247638Y782349D01*
X247483Y781975D01*
X247236Y781654D01*
X246915Y781407D01*
X246541Y781252D01*
X246140Y781200D01*
X245739Y781252D01*
X245365Y781407D01*
X245044Y781654D01*
X244797Y781975D01*
X244642Y782349D01*
X244590Y782747D01*
X244590Y790800D01*
G37*
G36*
X251887Y748550D02*
X259940Y748550D01*
X259940Y745450D01*
X251887Y745450D01*
X251489Y745502D01*
X251115Y745657D01*
X250794Y745904D01*
X250547Y746225D01*
X250392Y746599D01*
X250340Y747000D01*
X250392Y747401D01*
X250547Y747775D01*
X250794Y748096D01*
X251115Y748343D01*
X251489Y748498D01*
X251887Y748550D01*
G37*
G36*
X251887Y753550D02*
X259940Y753550D01*
X259940Y750450D01*
X251887Y750450D01*
X251489Y750502D01*
X251115Y750657D01*
X250794Y750904D01*
X250547Y751225D01*
X250392Y751599D01*
X250340Y752000D01*
X250392Y752401D01*
X250547Y752775D01*
X250794Y753096D01*
X251115Y753343D01*
X251489Y753498D01*
X251887Y753550D01*
G37*
G36*
X251887Y758550D02*
X259940Y758550D01*
X259940Y755450D01*
X251887Y755450D01*
X251489Y755502D01*
X251115Y755657D01*
X250794Y755904D01*
X250547Y756225D01*
X250392Y756599D01*
X250340Y757000D01*
X250392Y757401D01*
X250547Y757775D01*
X250794Y758096D01*
X251115Y758343D01*
X251489Y758498D01*
X251887Y758550D01*
G37*
G36*
X251887Y763550D02*
X259940Y763550D01*
X259940Y760450D01*
X251887Y760450D01*
X251489Y760502D01*
X251115Y760657D01*
X250794Y760904D01*
X250547Y761225D01*
X250392Y761599D01*
X250340Y762000D01*
X250392Y762401D01*
X250547Y762775D01*
X250794Y763096D01*
X251115Y763343D01*
X251489Y763498D01*
X251887Y763550D01*
G37*
G36*
X251887Y768550D02*
X259940Y768550D01*
X259940Y765450D01*
X251887Y765450D01*
X251489Y765502D01*
X251115Y765657D01*
X250794Y765904D01*
X250547Y766225D01*
X250392Y766599D01*
X250340Y767000D01*
X250392Y767401D01*
X250547Y767775D01*
X250794Y768096D01*
X251115Y768343D01*
X251489Y768498D01*
X251887Y768550D01*
G37*
G36*
X251887Y773550D02*
X259940Y773550D01*
X259940Y770450D01*
X251887Y770450D01*
X251489Y770502D01*
X251115Y770657D01*
X250794Y770904D01*
X250547Y771225D01*
X250392Y771599D01*
X250340Y772000D01*
X250392Y772401D01*
X250547Y772775D01*
X250794Y773096D01*
X251115Y773343D01*
X251489Y773498D01*
X251887Y773550D01*
G37*
G36*
X251887Y778550D02*
X259940Y778550D01*
X259940Y775450D01*
X251887Y775450D01*
X251489Y775502D01*
X251115Y775657D01*
X250794Y775904D01*
X250547Y776225D01*
X250392Y776599D01*
X250340Y777000D01*
X250392Y777401D01*
X250547Y777775D01*
X250794Y778096D01*
X251115Y778343D01*
X251489Y778498D01*
X251887Y778550D01*
G37*
D10*
X381010Y234950D03*
X398770Y234950D03*
D11*
X515620Y571430D03*
X515620Y556330D03*
D12*
X535060Y429260D03*
X552060Y429260D03*
D11*
X226060Y652850D03*
X226060Y667950D03*
D13*
X200660Y652700D03*
X200660Y668100D03*
X514350Y196770D03*
X514350Y212170D03*
X850900Y233600D03*
X850900Y249000D03*
X850900Y210900D03*
X850900Y195500D03*
D10*
X384820Y177800D03*
X402580Y177800D03*
D14*
X424250Y177800D03*
X439350Y177800D03*
D15*
X479980Y133350D03*
X495380Y133350D03*
D13*
X520700Y160100D03*
X520700Y144700D03*
X812800Y388700D03*
X812800Y373300D03*
D12*
X291220Y728980D03*
X308220Y728980D03*
D16*
X193010Y447040D03*
X177830Y447040D03*
X193010Y472440D03*
X177830Y472440D03*
D17*
X340360Y379603D03*
D18*
X340360Y372999D03*
D17*
X342900Y232283D03*
D18*
X342900Y225679D03*
D17*
X476250Y167767D03*
D18*
X476250Y174371D03*
D12*
X133740Y586740D03*
X150740Y586740D03*
D19*
X111760Y652892D03*
X111760Y667908D03*
X152400Y652892D03*
X152400Y667908D03*
X179070Y651622D03*
X179070Y666638D03*
D20*
X372550Y265430D03*
X402150Y265430D03*
D21*
X509270Y239850D03*
X509270Y255450D03*
X483870Y239850D03*
X483870Y255450D03*
X520700Y298630D03*
X520700Y283030D03*
D22*
X501830Y321310D03*
X486230Y321310D03*
D21*
X391160Y414200D03*
X391160Y398600D03*
D22*
X535760Y403860D03*
X551360Y403860D03*
X167460Y586740D03*
X183060Y586740D03*
D23*
X373380Y730700D03*
X373380Y717100D03*
D21*
X373380Y761930D03*
X373380Y746830D03*
D24*
X359791Y789940D03*
X371729Y789940D03*
D22*
X385900Y203200D03*
X401500Y203200D03*
X289380Y762000D03*
X304980Y762000D03*
D25*
X471190Y923290D03*
X486390Y923290D03*
X471190Y947420D03*
X486390Y947420D03*
D21*
X482600Y211000D03*
X482600Y195400D03*
X873760Y249100D03*
X873760Y233500D03*
X850900Y172900D03*
X850900Y157300D03*
D22*
X401500Y127000D03*
X385900Y127000D03*
X396060Y152400D03*
X411660Y152400D03*
D21*
X560070Y239850D03*
X560070Y255450D03*
X585470Y239850D03*
X585470Y255450D03*
X610870Y266520D03*
X610870Y282120D03*
D22*
X605970Y312420D03*
X590370Y312420D03*
D26*
X809900Y221200D03*
X764900Y221200D03*
X764900Y312200D03*
X809900Y312200D03*
X764900Y185200D03*
X809900Y185200D03*
X809900Y94200D03*
X764900Y94200D03*
D27*
X454596Y133200D03*
X454596Y139700D03*
X454596Y146200D03*
X434404Y146200D03*
X434404Y133200D03*
D28*
X677250Y563960D02*
X688150Y563960D01*
X688150Y560960D01*
X677250Y560960D01*
X677250Y563960D01*
X677250Y561910D02*
X688150Y561910D01*
X688150Y562860D02*
X677250Y562860D01*
X677250Y563810D02*
X688150Y563810D01*
X688150Y570460D02*
X677250Y570460D01*
X688150Y570460D02*
X688150Y567460D01*
X677250Y567460D01*
X677250Y570460D01*
X677250Y568410D02*
X688150Y568410D01*
X688150Y569360D02*
X677250Y569360D01*
X677250Y570310D02*
X688150Y570310D01*
X688150Y576960D02*
X677250Y576960D01*
X688150Y576960D02*
X688150Y573960D01*
X677250Y573960D01*
X677250Y576960D01*
X677250Y574910D02*
X688150Y574910D01*
X688150Y575860D02*
X677250Y575860D01*
X677250Y576810D02*
X688150Y576810D01*
X668950Y576960D02*
X658050Y576960D01*
X668950Y576960D02*
X668950Y573960D01*
X658050Y573960D01*
X658050Y576960D01*
X658050Y574910D02*
X668950Y574910D01*
X668950Y575860D02*
X658050Y575860D01*
X658050Y576810D02*
X668950Y576810D01*
X668950Y563960D02*
X658050Y563960D01*
X668950Y563960D02*
X668950Y560960D01*
X658050Y560960D01*
X658050Y563960D01*
X658050Y561910D02*
X668950Y561910D01*
X668950Y562860D02*
X658050Y562860D01*
X658050Y563810D02*
X668950Y563810D01*
D29*
X766400Y482600D03*
X795700Y520700D03*
X766400Y520700D03*
X795700Y482600D03*
D30*
X493500Y692240D03*
X506200Y692240D03*
X518900Y692240D03*
X531600Y692240D03*
X544300Y692240D03*
X557000Y692240D03*
X569700Y692240D03*
X582400Y692240D03*
X595100Y692240D03*
X607800Y692240D03*
X620500Y692240D03*
X633200Y692240D03*
X645900Y692240D03*
X658600Y692240D03*
D31*
X668600Y720090D03*
X668600Y732790D03*
X668600Y745490D03*
X668600Y758190D03*
X668600Y770890D03*
X668600Y783590D03*
X668600Y796290D03*
X668600Y808990D03*
X668600Y821690D03*
X668600Y834390D03*
D30*
X658600Y862240D03*
X645900Y862240D03*
X633200Y862240D03*
X620500Y862240D03*
X607800Y862240D03*
X595100Y862240D03*
X582400Y862240D03*
X569700Y862240D03*
X557000Y862240D03*
X544300Y862240D03*
X531600Y862240D03*
X518900Y862240D03*
X506200Y862240D03*
X493500Y862240D03*
D32*
X550150Y748890D03*
X550150Y767240D03*
X550150Y785590D03*
X568500Y748890D03*
X568500Y767240D03*
X568500Y785590D03*
X586850Y748890D03*
X586850Y767240D03*
X586850Y785590D03*
D33*
X231140Y762000D03*
D34*
X844400Y370904D03*
X850900Y370904D03*
X857400Y370904D03*
X857400Y391096D03*
X844400Y391096D03*
D35*
X558102Y129130D03*
X558102Y122630D03*
X558102Y116130D03*
X558102Y109630D03*
X582358Y109630D03*
X582358Y116130D03*
X582358Y122630D03*
X582358Y129130D03*
D27*
X567754Y293520D03*
X567754Y287020D03*
X567754Y280520D03*
X587946Y280520D03*
X587946Y293520D03*
X485204Y296060D03*
X485204Y289560D03*
X485204Y283060D03*
X505396Y283060D03*
X505396Y296060D03*
D36*
X531208Y365350D03*
X531208Y358850D03*
X531208Y352350D03*
X531208Y345850D03*
X573692Y345850D03*
X573692Y352350D03*
X573692Y358850D03*
X573692Y365350D03*
D37*
X454000Y418912D03*
X444500Y418912D03*
X435000Y418912D03*
X435000Y393888D03*
X454000Y393888D03*
D38*
X179602Y507860D03*
X179602Y530860D03*
X179602Y553860D03*
D39*
X120118Y530860D03*
D40*
X539750Y557530D03*
X552450Y557530D03*
X565150Y557530D03*
X577850Y557530D03*
X590550Y557530D03*
X603250Y557530D03*
X615950Y557530D03*
X628650Y557530D03*
X628650Y605790D03*
X615950Y605790D03*
X603250Y605790D03*
X590550Y605790D03*
X577850Y605790D03*
X565150Y605790D03*
X552450Y605790D03*
X539750Y605790D03*
D41*
X92050Y736900D03*
X92050Y730400D03*
X92050Y723900D03*
X92050Y717400D03*
X92050Y710900D03*
D42*
X65300Y733900D03*
X65300Y713900D03*
D43*
X511510Y471770D02*
X518410Y471770D01*
X511510Y471770D02*
X511510Y483270D01*
X518410Y483270D01*
X518410Y471770D01*
X518410Y473955D02*
X511510Y473955D01*
X511510Y476140D02*
X518410Y476140D01*
X518410Y478325D02*
X511510Y478325D01*
X511510Y480510D02*
X518410Y480510D01*
X518410Y482695D02*
X511510Y482695D01*
X530610Y471770D02*
X537510Y471770D01*
X530610Y471770D02*
X530610Y483270D01*
X537510Y483270D01*
X537510Y471770D01*
X537510Y473955D02*
X530610Y473955D01*
X530610Y476140D02*
X537510Y476140D01*
X537510Y478325D02*
X530610Y478325D01*
X530610Y480510D02*
X537510Y480510D01*
X537510Y482695D02*
X530610Y482695D01*
X1461520Y780450D02*
X1468420Y780450D01*
X1468420Y768950D01*
X1461520Y768950D01*
X1461520Y780450D01*
X1461520Y771135D02*
X1468420Y771135D01*
X1468420Y773320D02*
X1461520Y773320D01*
X1461520Y775505D02*
X1468420Y775505D01*
X1468420Y777690D02*
X1461520Y777690D01*
X1461520Y779875D02*
X1468420Y779875D01*
X1449320Y780450D02*
X1442420Y780450D01*
X1449320Y780450D02*
X1449320Y768950D01*
X1442420Y768950D01*
X1442420Y780450D01*
X1442420Y771135D02*
X1449320Y771135D01*
X1449320Y773320D02*
X1442420Y773320D01*
X1442420Y775505D02*
X1449320Y775505D01*
X1449320Y777690D02*
X1442420Y777690D01*
X1442420Y779875D02*
X1449320Y779875D01*
X1449320Y718150D02*
X1442420Y718150D01*
X1442420Y729650D01*
X1449320Y729650D01*
X1449320Y718150D01*
X1449320Y720335D02*
X1442420Y720335D01*
X1442420Y722520D02*
X1449320Y722520D01*
X1449320Y724705D02*
X1442420Y724705D01*
X1442420Y726890D02*
X1449320Y726890D01*
X1449320Y729075D02*
X1442420Y729075D01*
X1461520Y718150D02*
X1468420Y718150D01*
X1461520Y718150D02*
X1461520Y729650D01*
X1468420Y729650D01*
X1468420Y718150D01*
X1468420Y720335D02*
X1461520Y720335D01*
X1461520Y722520D02*
X1468420Y722520D01*
X1468420Y724705D02*
X1461520Y724705D01*
X1461520Y726890D02*
X1468420Y726890D01*
X1468420Y729075D02*
X1461520Y729075D01*
X1377350Y664460D02*
X1377350Y657560D01*
X1365850Y657560D01*
X1365850Y664460D01*
X1377350Y664460D01*
X1377350Y659745D02*
X1365850Y659745D01*
X1365850Y661930D02*
X1377350Y661930D01*
X1377350Y664115D02*
X1365850Y664115D01*
X1377350Y676660D02*
X1377350Y683560D01*
X1377350Y676660D02*
X1365850Y676660D01*
X1365850Y683560D01*
X1377350Y683560D01*
X1377350Y678845D02*
X1365850Y678845D01*
X1365850Y681030D02*
X1377350Y681030D01*
X1377350Y683215D02*
X1365850Y683215D01*
X785530Y886160D02*
X785530Y893060D01*
X785530Y886160D02*
X774030Y886160D01*
X774030Y893060D01*
X785530Y893060D01*
X785530Y888345D02*
X774030Y888345D01*
X774030Y890530D02*
X785530Y890530D01*
X785530Y892715D02*
X774030Y892715D01*
X785530Y905260D02*
X785530Y912160D01*
X785530Y905260D02*
X774030Y905260D01*
X774030Y912160D01*
X785530Y912160D01*
X785530Y907445D02*
X774030Y907445D01*
X774030Y909630D02*
X785530Y909630D01*
X785530Y911815D02*
X774030Y911815D01*
D25*
X431780Y923290D03*
X416580Y923290D03*
D44*
X673100Y259100D03*
X673100Y274300D03*
X274320Y652800D03*
X274320Y668000D03*
D43*
X891240Y197450D02*
X898140Y197450D01*
X891240Y197450D02*
X891240Y208950D01*
X898140Y208950D01*
X898140Y197450D01*
X898140Y199635D02*
X891240Y199635D01*
X891240Y201820D02*
X898140Y201820D01*
X898140Y204005D02*
X891240Y204005D01*
X891240Y206190D02*
X898140Y206190D01*
X898140Y208375D02*
X891240Y208375D01*
X910340Y197450D02*
X917240Y197450D01*
X910340Y197450D02*
X910340Y208950D01*
X917240Y208950D01*
X917240Y197450D01*
X917240Y199635D02*
X910340Y199635D01*
X910340Y201820D02*
X917240Y201820D01*
X917240Y204005D02*
X910340Y204005D01*
X910340Y206190D02*
X917240Y206190D01*
X917240Y208375D02*
X910340Y208375D01*
X395220Y517490D02*
X388320Y517490D01*
X388320Y528990D01*
X395220Y528990D01*
X395220Y517490D01*
X395220Y519675D02*
X388320Y519675D01*
X388320Y521860D02*
X395220Y521860D01*
X395220Y524045D02*
X388320Y524045D01*
X388320Y526230D02*
X395220Y526230D01*
X395220Y528415D02*
X388320Y528415D01*
X407420Y517490D02*
X414320Y517490D01*
X407420Y517490D02*
X407420Y528990D01*
X414320Y528990D01*
X414320Y517490D01*
X414320Y519675D02*
X407420Y519675D01*
X407420Y521860D02*
X414320Y521860D01*
X414320Y524045D02*
X407420Y524045D01*
X407420Y526230D02*
X414320Y526230D01*
X414320Y528415D02*
X407420Y528415D01*
X842980Y476850D02*
X849880Y476850D01*
X842980Y476850D02*
X842980Y488350D01*
X849880Y488350D01*
X849880Y476850D01*
X849880Y479035D02*
X842980Y479035D01*
X842980Y481220D02*
X849880Y481220D01*
X849880Y483405D02*
X842980Y483405D01*
X842980Y485590D02*
X849880Y485590D01*
X849880Y487775D02*
X842980Y487775D01*
X862080Y476850D02*
X868980Y476850D01*
X862080Y476850D02*
X862080Y488350D01*
X868980Y488350D01*
X868980Y476850D01*
X868980Y479035D02*
X862080Y479035D01*
X862080Y481220D02*
X868980Y481220D01*
X868980Y483405D02*
X862080Y483405D01*
X862080Y485590D02*
X868980Y485590D01*
X868980Y487775D02*
X862080Y487775D01*
D25*
X815360Y434340D03*
X830560Y434340D03*
D44*
X543560Y309900D03*
X543560Y325100D03*
X655320Y444520D03*
X655320Y459720D03*
D25*
X632480Y266700D03*
X647680Y266700D03*
D44*
X873760Y139680D03*
X873760Y124480D03*
X129540Y657880D03*
X129540Y673080D03*
D25*
X901720Y452120D03*
X916920Y452120D03*
X795040Y568960D03*
X810240Y568960D03*
X475000Y431800D03*
X490200Y431800D03*
D44*
X563880Y469920D03*
X563880Y485120D03*
M02*
