G04 EAGLE Gerber RS-274X export*
G75*
%MOMM*%
%FSLAX34Y34*%
%LPD*%
%INSoldermask Top*%
%IPPOS*%
%AMOC8*
5,1,8,0,0,1.08239X$1,22.5*%
G01*
G04 Define Apertures*
%ADD10R,1.253200X1.583200*%
%ADD11R,1.173200X1.163200*%
%ADD12R,1.303200X1.203200*%
%ADD13R,1.133200X1.093200*%
%ADD14R,1.163200X1.173200*%
%ADD15R,1.093200X1.133200*%
%ADD16R,1.203200X1.223200*%
%ADD17R,0.711200X0.609600*%
%ADD18R,0.711200X0.762000*%
%ADD19R,0.502400X0.604800*%
%ADD20C,2.703200*%
%ADD21C,2.453200*%
%ADD22R,1.601200X1.601200*%
%ADD23C,1.601200*%
%ADD24R,1.173200X1.933200*%
%ADD25R,1.133200X1.073200*%
%ADD26R,1.073200X1.133200*%
%ADD27R,1.133200X1.173200*%
%ADD28R,0.914400X1.041400*%
%ADD29R,1.103200X1.173200*%
%ADD30R,1.471200X1.471200*%
%ADD31C,1.471200*%
%ADD32R,1.603200X2.303200*%
%ADD33R,0.876300X0.457200*%
%ADD34C,0.301600*%
%ADD35R,2.153200X1.753200*%
%ADD36R,1.103200X2.203200*%
%ADD37R,2.203200X1.103200*%
%ADD38R,1.533200X1.533200*%
%ADD39C,0.911200*%
%ADD40R,0.457200X0.876300*%
%ADD41R,0.876300X0.558800*%
%ADD42R,1.409600X0.603200*%
%ADD43R,0.652400X1.005600*%
%ADD44R,1.659600X1.003200*%
%ADD45R,1.659600X3.303200*%
%ADD46R,0.711200X1.879600*%
%ADD47R,1.477000X0.527000*%
%ADD48C,0.788500*%
%ADD49R,2.027000X1.627000*%
%ADD50C,2.753200*%
%ADD51C,0.438047*%
%ADD52R,1.549400X1.549400*%
%ADD53C,1.549400*%
%ADD54R,1.173200X1.103200*%
%ADD55C,0.959600*%
G36*
X213740Y779400D02*
X248540Y779400D01*
X248540Y744600D01*
X216589Y744600D01*
X213740Y747449D01*
X213740Y779400D01*
G37*
G36*
X55224Y686791D02*
X55115Y687898D01*
X55115Y701585D01*
X75485Y701585D01*
X75485Y687898D01*
X75376Y686791D01*
X75052Y685724D01*
X74527Y684741D01*
X73820Y683880D01*
X72959Y683173D01*
X71976Y682648D01*
X70909Y682324D01*
X69802Y682215D01*
X60798Y682215D01*
X59691Y682324D01*
X58624Y682648D01*
X57641Y683173D01*
X56780Y683880D01*
X56073Y684741D01*
X55548Y685724D01*
X55224Y686791D01*
G37*
G36*
X75485Y746215D02*
X55115Y746215D01*
X55115Y759902D01*
X55224Y761009D01*
X55548Y762076D01*
X56073Y763059D01*
X56780Y763920D01*
X57641Y764627D01*
X58624Y765152D01*
X59691Y765476D01*
X60798Y765585D01*
X69802Y765585D01*
X70909Y765476D01*
X71976Y765152D01*
X72959Y764627D01*
X73820Y763920D01*
X74527Y763059D01*
X75052Y762076D01*
X75376Y761009D01*
X75485Y759902D01*
X75485Y746215D01*
G37*
G36*
X212467Y747557D02*
X212540Y747000D01*
X212467Y746443D01*
X212252Y745925D01*
X211911Y745479D01*
X211465Y745138D01*
X210947Y744923D01*
X210393Y744850D01*
X201740Y744850D01*
X201740Y749150D01*
X210393Y749150D01*
X210947Y749077D01*
X211465Y748862D01*
X211911Y748521D01*
X212252Y748075D01*
X212467Y747557D01*
G37*
G36*
X212467Y752557D02*
X212540Y752000D01*
X212467Y751443D01*
X212252Y750925D01*
X211911Y750479D01*
X211465Y750138D01*
X210947Y749923D01*
X210393Y749850D01*
X201740Y749850D01*
X201740Y754150D01*
X210393Y754150D01*
X210947Y754077D01*
X211465Y753862D01*
X211911Y753521D01*
X212252Y753075D01*
X212467Y752557D01*
G37*
G36*
X212467Y757557D02*
X212540Y757000D01*
X212467Y756443D01*
X212252Y755925D01*
X211911Y755479D01*
X211465Y755138D01*
X210947Y754923D01*
X210393Y754850D01*
X201740Y754850D01*
X201740Y759150D01*
X210393Y759150D01*
X210947Y759077D01*
X211465Y758862D01*
X211911Y758521D01*
X212252Y758075D01*
X212467Y757557D01*
G37*
G36*
X212467Y762557D02*
X212540Y762000D01*
X212467Y761443D01*
X212252Y760925D01*
X211911Y760479D01*
X211465Y760138D01*
X210947Y759923D01*
X210393Y759850D01*
X201740Y759850D01*
X201740Y764150D01*
X210393Y764150D01*
X210947Y764077D01*
X211465Y763862D01*
X211911Y763521D01*
X212252Y763075D01*
X212467Y762557D01*
G37*
G36*
X212467Y767557D02*
X212540Y767000D01*
X212467Y766443D01*
X212252Y765925D01*
X211911Y765479D01*
X211465Y765138D01*
X210947Y764923D01*
X210393Y764850D01*
X201740Y764850D01*
X201740Y769150D01*
X210393Y769150D01*
X210947Y769077D01*
X211465Y768862D01*
X211911Y768521D01*
X212252Y768075D01*
X212467Y767557D01*
G37*
G36*
X212467Y772557D02*
X212540Y772000D01*
X212467Y771443D01*
X212252Y770925D01*
X211911Y770479D01*
X211465Y770138D01*
X210947Y769923D01*
X210393Y769850D01*
X201740Y769850D01*
X201740Y774150D01*
X210393Y774150D01*
X210947Y774077D01*
X211465Y773862D01*
X211911Y773521D01*
X212252Y773075D01*
X212467Y772557D01*
G37*
G36*
X212467Y777557D02*
X212540Y777000D01*
X212467Y776443D01*
X212252Y775925D01*
X211911Y775479D01*
X211465Y775138D01*
X210947Y774923D01*
X210393Y774850D01*
X201740Y774850D01*
X201740Y779150D01*
X210393Y779150D01*
X210947Y779077D01*
X211465Y778862D01*
X211911Y778521D01*
X212252Y778075D01*
X212467Y777557D01*
G37*
G36*
X218217Y741807D02*
X218290Y741253D01*
X218290Y732600D01*
X213990Y732600D01*
X213990Y741253D01*
X214063Y741807D01*
X214278Y742325D01*
X214619Y742771D01*
X215065Y743112D01*
X215583Y743327D01*
X216140Y743400D01*
X216697Y743327D01*
X217215Y743112D01*
X217661Y742771D01*
X218002Y742325D01*
X218217Y741807D01*
G37*
G36*
X213990Y791400D02*
X218290Y791400D01*
X218290Y782747D01*
X218217Y782193D01*
X218002Y781675D01*
X217661Y781229D01*
X217215Y780888D01*
X216697Y780673D01*
X216140Y780600D01*
X215583Y780673D01*
X215065Y780888D01*
X214619Y781229D01*
X214278Y781675D01*
X214063Y782193D01*
X213990Y782747D01*
X213990Y791400D01*
G37*
G36*
X223217Y741807D02*
X223290Y741253D01*
X223290Y732600D01*
X218990Y732600D01*
X218990Y741253D01*
X219063Y741807D01*
X219278Y742325D01*
X219619Y742771D01*
X220065Y743112D01*
X220583Y743327D01*
X221140Y743400D01*
X221697Y743327D01*
X222215Y743112D01*
X222661Y742771D01*
X223002Y742325D01*
X223217Y741807D01*
G37*
G36*
X218990Y791400D02*
X223290Y791400D01*
X223290Y782747D01*
X223217Y782193D01*
X223002Y781675D01*
X222661Y781229D01*
X222215Y780888D01*
X221697Y780673D01*
X221140Y780600D01*
X220583Y780673D01*
X220065Y780888D01*
X219619Y781229D01*
X219278Y781675D01*
X219063Y782193D01*
X218990Y782747D01*
X218990Y791400D01*
G37*
G36*
X228217Y741807D02*
X228290Y741253D01*
X228290Y732600D01*
X223990Y732600D01*
X223990Y741253D01*
X224063Y741807D01*
X224278Y742325D01*
X224619Y742771D01*
X225065Y743112D01*
X225583Y743327D01*
X226140Y743400D01*
X226697Y743327D01*
X227215Y743112D01*
X227661Y742771D01*
X228002Y742325D01*
X228217Y741807D01*
G37*
G36*
X223990Y791400D02*
X228290Y791400D01*
X228290Y782747D01*
X228217Y782193D01*
X228002Y781675D01*
X227661Y781229D01*
X227215Y780888D01*
X226697Y780673D01*
X226140Y780600D01*
X225583Y780673D01*
X225065Y780888D01*
X224619Y781229D01*
X224278Y781675D01*
X224063Y782193D01*
X223990Y782747D01*
X223990Y791400D01*
G37*
G36*
X233217Y741807D02*
X233290Y741253D01*
X233290Y732600D01*
X228990Y732600D01*
X228990Y741253D01*
X229063Y741807D01*
X229278Y742325D01*
X229619Y742771D01*
X230065Y743112D01*
X230583Y743327D01*
X231140Y743400D01*
X231697Y743327D01*
X232215Y743112D01*
X232661Y742771D01*
X233002Y742325D01*
X233217Y741807D01*
G37*
G36*
X228990Y791400D02*
X233290Y791400D01*
X233290Y782747D01*
X233217Y782193D01*
X233002Y781675D01*
X232661Y781229D01*
X232215Y780888D01*
X231697Y780673D01*
X231140Y780600D01*
X230583Y780673D01*
X230065Y780888D01*
X229619Y781229D01*
X229278Y781675D01*
X229063Y782193D01*
X228990Y782747D01*
X228990Y791400D01*
G37*
G36*
X238217Y741807D02*
X238290Y741253D01*
X238290Y732600D01*
X233990Y732600D01*
X233990Y741253D01*
X234063Y741807D01*
X234278Y742325D01*
X234619Y742771D01*
X235065Y743112D01*
X235583Y743327D01*
X236140Y743400D01*
X236697Y743327D01*
X237215Y743112D01*
X237661Y742771D01*
X238002Y742325D01*
X238217Y741807D01*
G37*
G36*
X233990Y791400D02*
X238290Y791400D01*
X238290Y782747D01*
X238217Y782193D01*
X238002Y781675D01*
X237661Y781229D01*
X237215Y780888D01*
X236697Y780673D01*
X236140Y780600D01*
X235583Y780673D01*
X235065Y780888D01*
X234619Y781229D01*
X234278Y781675D01*
X234063Y782193D01*
X233990Y782747D01*
X233990Y791400D01*
G37*
G36*
X243217Y741807D02*
X243290Y741253D01*
X243290Y732600D01*
X238990Y732600D01*
X238990Y741253D01*
X239063Y741807D01*
X239278Y742325D01*
X239619Y742771D01*
X240065Y743112D01*
X240583Y743327D01*
X241140Y743400D01*
X241697Y743327D01*
X242215Y743112D01*
X242661Y742771D01*
X243002Y742325D01*
X243217Y741807D01*
G37*
G36*
X238990Y791400D02*
X243290Y791400D01*
X243290Y782747D01*
X243217Y782193D01*
X243002Y781675D01*
X242661Y781229D01*
X242215Y780888D01*
X241697Y780673D01*
X241140Y780600D01*
X240583Y780673D01*
X240065Y780888D01*
X239619Y781229D01*
X239278Y781675D01*
X239063Y782193D01*
X238990Y782747D01*
X238990Y791400D01*
G37*
G36*
X248217Y741807D02*
X248290Y741253D01*
X248290Y732600D01*
X243990Y732600D01*
X243990Y741253D01*
X244063Y741807D01*
X244278Y742325D01*
X244619Y742771D01*
X245065Y743112D01*
X245583Y743327D01*
X246140Y743400D01*
X246697Y743327D01*
X247215Y743112D01*
X247661Y742771D01*
X248002Y742325D01*
X248217Y741807D01*
G37*
G36*
X243990Y791400D02*
X248290Y791400D01*
X248290Y782747D01*
X248217Y782193D01*
X248002Y781675D01*
X247661Y781229D01*
X247215Y780888D01*
X246697Y780673D01*
X246140Y780600D01*
X245583Y780673D01*
X245065Y780888D01*
X244619Y781229D01*
X244278Y781675D01*
X244063Y782193D01*
X243990Y782747D01*
X243990Y791400D01*
G37*
G36*
X251887Y749150D02*
X260540Y749150D01*
X260540Y744850D01*
X251887Y744850D01*
X251333Y744923D01*
X250815Y745138D01*
X250369Y745479D01*
X250028Y745925D01*
X249813Y746443D01*
X249740Y747000D01*
X249813Y747557D01*
X250028Y748075D01*
X250369Y748521D01*
X250815Y748862D01*
X251333Y749077D01*
X251887Y749150D01*
G37*
G36*
X251887Y754150D02*
X260540Y754150D01*
X260540Y749850D01*
X251887Y749850D01*
X251333Y749923D01*
X250815Y750138D01*
X250369Y750479D01*
X250028Y750925D01*
X249813Y751443D01*
X249740Y752000D01*
X249813Y752557D01*
X250028Y753075D01*
X250369Y753521D01*
X250815Y753862D01*
X251333Y754077D01*
X251887Y754150D01*
G37*
G36*
X251887Y759150D02*
X260540Y759150D01*
X260540Y754850D01*
X251887Y754850D01*
X251333Y754923D01*
X250815Y755138D01*
X250369Y755479D01*
X250028Y755925D01*
X249813Y756443D01*
X249740Y757000D01*
X249813Y757557D01*
X250028Y758075D01*
X250369Y758521D01*
X250815Y758862D01*
X251333Y759077D01*
X251887Y759150D01*
G37*
G36*
X251887Y764150D02*
X260540Y764150D01*
X260540Y759850D01*
X251887Y759850D01*
X251333Y759923D01*
X250815Y760138D01*
X250369Y760479D01*
X250028Y760925D01*
X249813Y761443D01*
X249740Y762000D01*
X249813Y762557D01*
X250028Y763075D01*
X250369Y763521D01*
X250815Y763862D01*
X251333Y764077D01*
X251887Y764150D01*
G37*
G36*
X251887Y769150D02*
X260540Y769150D01*
X260540Y764850D01*
X251887Y764850D01*
X251333Y764923D01*
X250815Y765138D01*
X250369Y765479D01*
X250028Y765925D01*
X249813Y766443D01*
X249740Y767000D01*
X249813Y767557D01*
X250028Y768075D01*
X250369Y768521D01*
X250815Y768862D01*
X251333Y769077D01*
X251887Y769150D01*
G37*
G36*
X251887Y774150D02*
X260540Y774150D01*
X260540Y769850D01*
X251887Y769850D01*
X251333Y769923D01*
X250815Y770138D01*
X250369Y770479D01*
X250028Y770925D01*
X249813Y771443D01*
X249740Y772000D01*
X249813Y772557D01*
X250028Y773075D01*
X250369Y773521D01*
X250815Y773862D01*
X251333Y774077D01*
X251887Y774150D01*
G37*
G36*
X251887Y779150D02*
X260540Y779150D01*
X260540Y774850D01*
X251887Y774850D01*
X251333Y774923D01*
X250815Y775138D01*
X250369Y775479D01*
X250028Y775925D01*
X249813Y776443D01*
X249740Y777000D01*
X249813Y777557D01*
X250028Y778075D01*
X250369Y778521D01*
X250815Y778862D01*
X251333Y779077D01*
X251887Y779150D01*
G37*
D10*
X381010Y234950D03*
X398770Y234950D03*
D11*
X515620Y571430D03*
X515620Y556330D03*
D12*
X535060Y429260D03*
X552060Y429260D03*
D11*
X226060Y652850D03*
X226060Y667950D03*
D13*
X200660Y652700D03*
X200660Y668100D03*
X514350Y196770D03*
X514350Y212170D03*
X850900Y233600D03*
X850900Y249000D03*
X850900Y210900D03*
X850900Y195500D03*
D10*
X384820Y177800D03*
X402580Y177800D03*
D14*
X424250Y177800D03*
X439350Y177800D03*
D15*
X479980Y133350D03*
X495380Y133350D03*
D13*
X520700Y160100D03*
X520700Y144700D03*
X812800Y388700D03*
X812800Y373300D03*
D12*
X291220Y728980D03*
X308220Y728980D03*
D16*
X193010Y447040D03*
X177830Y447040D03*
X193010Y472440D03*
X177830Y472440D03*
D17*
X340360Y379603D03*
D18*
X340360Y372999D03*
D17*
X342900Y232283D03*
D18*
X342900Y225679D03*
D17*
X476250Y167767D03*
D18*
X476250Y174371D03*
D12*
X133740Y586740D03*
X150740Y586740D03*
D19*
X111760Y652892D03*
X111760Y667908D03*
X152400Y652892D03*
X152400Y667908D03*
X179070Y651622D03*
X179070Y666638D03*
D20*
X179300Y889200D02*
X179300Y914200D01*
D21*
X119300Y912950D02*
X119300Y890450D01*
X138050Y854700D02*
X160550Y854700D01*
D22*
X1511300Y571500D03*
D23*
X1511300Y596900D03*
X1511300Y622300D03*
X1511300Y647700D03*
X1511300Y673100D03*
X1511300Y698500D03*
X1511300Y723900D03*
X1511300Y749300D03*
X1511300Y774700D03*
X1511300Y800100D03*
X1511300Y825500D03*
X1511300Y850900D03*
X1511300Y876300D03*
X1511300Y901700D03*
D24*
X372550Y265430D03*
X402150Y265430D03*
D25*
X509270Y239850D03*
X509270Y255450D03*
X483870Y239850D03*
X483870Y255450D03*
X520700Y298630D03*
X520700Y283030D03*
D26*
X501830Y321310D03*
X486230Y321310D03*
D25*
X391160Y414200D03*
X391160Y398600D03*
D26*
X535760Y403860D03*
X551360Y403860D03*
X167460Y586740D03*
X183060Y586740D03*
D27*
X373380Y730700D03*
X373380Y717100D03*
D25*
X373380Y761930D03*
X373380Y746830D03*
D28*
X359791Y789940D03*
X371729Y789940D03*
D26*
X385900Y203200D03*
X401500Y203200D03*
X289380Y762000D03*
X304980Y762000D03*
D29*
X471190Y923290D03*
X486390Y923290D03*
X471190Y947420D03*
X486390Y947420D03*
D25*
X482600Y211000D03*
X482600Y195400D03*
D30*
X1224130Y152400D03*
D31*
X1198730Y127000D03*
X1224130Y101600D03*
D30*
X1224130Y304800D03*
D31*
X1198730Y279400D03*
X1224130Y254000D03*
D30*
X1452730Y152400D03*
D31*
X1427330Y127000D03*
X1452730Y101600D03*
D30*
X995530Y152400D03*
D31*
X970130Y127000D03*
X995530Y101600D03*
D30*
X1452730Y304800D03*
D31*
X1427330Y279400D03*
X1452730Y254000D03*
D25*
X873760Y249100D03*
X873760Y233500D03*
D30*
X995530Y304800D03*
D31*
X970130Y279400D03*
X995530Y254000D03*
D25*
X850900Y172900D03*
X850900Y157300D03*
D26*
X401500Y127000D03*
X385900Y127000D03*
X396060Y152400D03*
X411660Y152400D03*
D25*
X560070Y239850D03*
X560070Y255450D03*
X585470Y239850D03*
X585470Y255450D03*
X610870Y266520D03*
X610870Y282120D03*
D26*
X605970Y312420D03*
X590370Y312420D03*
D32*
X809900Y221200D03*
X764900Y221200D03*
X764900Y312200D03*
X809900Y312200D03*
X764900Y185200D03*
X809900Y185200D03*
X809900Y94200D03*
X764900Y94200D03*
D33*
X454596Y133200D03*
X454596Y139700D03*
X454596Y146200D03*
X434404Y146200D03*
X434404Y133200D03*
D34*
X677242Y563968D02*
X688158Y563968D01*
X688158Y560952D01*
X677242Y560952D01*
X677242Y563968D01*
X677242Y563817D02*
X688158Y563817D01*
X688158Y570468D02*
X677242Y570468D01*
X688158Y570468D02*
X688158Y567452D01*
X677242Y567452D01*
X677242Y570468D01*
X677242Y570317D02*
X688158Y570317D01*
X688158Y576968D02*
X677242Y576968D01*
X688158Y576968D02*
X688158Y573952D01*
X677242Y573952D01*
X677242Y576968D01*
X677242Y576817D02*
X688158Y576817D01*
X668958Y576968D02*
X658042Y576968D01*
X668958Y576968D02*
X668958Y573952D01*
X658042Y573952D01*
X658042Y576968D01*
X658042Y576817D02*
X668958Y576817D01*
X668958Y563968D02*
X658042Y563968D01*
X668958Y563968D02*
X668958Y560952D01*
X658042Y560952D01*
X658042Y563968D01*
X658042Y563817D02*
X668958Y563817D01*
D35*
X766400Y482600D03*
X795700Y520700D03*
X766400Y520700D03*
X795700Y482600D03*
D36*
X493500Y692240D03*
X506200Y692240D03*
X518900Y692240D03*
X531600Y692240D03*
X544300Y692240D03*
X557000Y692240D03*
X569700Y692240D03*
X582400Y692240D03*
X595100Y692240D03*
X607800Y692240D03*
X620500Y692240D03*
X633200Y692240D03*
X645900Y692240D03*
X658600Y692240D03*
D37*
X668600Y720090D03*
X668600Y732790D03*
X668600Y745490D03*
X668600Y758190D03*
X668600Y770890D03*
X668600Y783590D03*
X668600Y796290D03*
X668600Y808990D03*
X668600Y821690D03*
X668600Y834390D03*
D36*
X658600Y862240D03*
X645900Y862240D03*
X633200Y862240D03*
X620500Y862240D03*
X607800Y862240D03*
X595100Y862240D03*
X582400Y862240D03*
X569700Y862240D03*
X557000Y862240D03*
X544300Y862240D03*
X531600Y862240D03*
X518900Y862240D03*
X506200Y862240D03*
X493500Y862240D03*
D38*
X550150Y748890D03*
X550150Y767240D03*
X550150Y785590D03*
X568500Y748890D03*
X568500Y767240D03*
X568500Y785590D03*
X586850Y748890D03*
X586850Y767240D03*
X586850Y785590D03*
D39*
X550150Y758065D03*
X550150Y776415D03*
X559325Y748890D03*
X559325Y767240D03*
X559325Y785590D03*
X568500Y758065D03*
X568500Y776415D03*
X577675Y748890D03*
X577675Y767240D03*
X577675Y785590D03*
X586850Y758065D03*
X586850Y776415D03*
D40*
X844400Y370904D03*
X850900Y370904D03*
X857400Y370904D03*
X857400Y391096D03*
X844400Y391096D03*
D41*
X558102Y129130D03*
X558102Y122630D03*
X558102Y116130D03*
X558102Y109630D03*
X582358Y109630D03*
X582358Y116130D03*
X582358Y122630D03*
X582358Y129130D03*
D33*
X567754Y293520D03*
X567754Y287020D03*
X567754Y280520D03*
X587946Y280520D03*
X587946Y293520D03*
X485204Y296060D03*
X485204Y289560D03*
X485204Y283060D03*
X505396Y283060D03*
X505396Y296060D03*
D42*
X531208Y365350D03*
X531208Y358850D03*
X531208Y352350D03*
X531208Y345850D03*
X573692Y345850D03*
X573692Y352350D03*
X573692Y358850D03*
X573692Y365350D03*
D43*
X454000Y418912D03*
X444500Y418912D03*
X435000Y418912D03*
X435000Y393888D03*
X454000Y393888D03*
D44*
X179602Y507860D03*
X179602Y530860D03*
X179602Y553860D03*
D45*
X120118Y530860D03*
D46*
X539750Y557530D03*
X552450Y557530D03*
X565150Y557530D03*
X577850Y557530D03*
X590550Y557530D03*
X603250Y557530D03*
X615950Y557530D03*
X628650Y557530D03*
X628650Y605790D03*
X615950Y605790D03*
X603250Y605790D03*
X590550Y605790D03*
X577850Y605790D03*
X565150Y605790D03*
X552450Y605790D03*
X539750Y605790D03*
D47*
X92050Y736900D03*
X92050Y730400D03*
X92050Y723900D03*
X92050Y717400D03*
X92050Y710900D03*
D48*
X88357Y748900D02*
X88359Y749025D01*
X88365Y749150D01*
X88375Y749275D01*
X88389Y749399D01*
X88407Y749523D01*
X88428Y749646D01*
X88454Y749769D01*
X88483Y749890D01*
X88517Y750011D01*
X88554Y750130D01*
X88595Y750249D01*
X88639Y750365D01*
X88688Y750481D01*
X88740Y750595D01*
X88795Y750707D01*
X88854Y750817D01*
X88917Y750925D01*
X88983Y751032D01*
X89052Y751136D01*
X89125Y751238D01*
X89201Y751337D01*
X89279Y751435D01*
X89361Y751529D01*
X89446Y751621D01*
X89534Y751710D01*
X89625Y751796D01*
X89718Y751880D01*
X89814Y751960D01*
X89912Y752038D01*
X90013Y752112D01*
X90116Y752183D01*
X90221Y752250D01*
X90329Y752315D01*
X90438Y752376D01*
X90549Y752433D01*
X90662Y752487D01*
X90777Y752537D01*
X90893Y752583D01*
X91010Y752626D01*
X91129Y752665D01*
X91249Y752700D01*
X91370Y752732D01*
X91492Y752759D01*
X91615Y752783D01*
X91739Y752803D01*
X91863Y752819D01*
X91988Y752831D01*
X92112Y752839D01*
X92237Y752843D01*
X92363Y752843D01*
X92488Y752839D01*
X92612Y752831D01*
X92737Y752819D01*
X92861Y752803D01*
X92985Y752783D01*
X93108Y752759D01*
X93230Y752732D01*
X93351Y752700D01*
X93471Y752665D01*
X93590Y752626D01*
X93707Y752583D01*
X93823Y752537D01*
X93938Y752487D01*
X94051Y752433D01*
X94162Y752376D01*
X94272Y752315D01*
X94379Y752250D01*
X94484Y752183D01*
X94587Y752112D01*
X94688Y752038D01*
X94786Y751960D01*
X94882Y751880D01*
X94975Y751796D01*
X95066Y751710D01*
X95154Y751621D01*
X95239Y751529D01*
X95321Y751435D01*
X95399Y751337D01*
X95475Y751238D01*
X95548Y751136D01*
X95617Y751032D01*
X95683Y750925D01*
X95746Y750817D01*
X95805Y750707D01*
X95860Y750595D01*
X95912Y750481D01*
X95961Y750365D01*
X96005Y750249D01*
X96046Y750130D01*
X96083Y750011D01*
X96117Y749890D01*
X96146Y749769D01*
X96172Y749646D01*
X96193Y749523D01*
X96211Y749399D01*
X96225Y749275D01*
X96235Y749150D01*
X96241Y749025D01*
X96243Y748900D01*
X96241Y748775D01*
X96235Y748650D01*
X96225Y748525D01*
X96211Y748401D01*
X96193Y748277D01*
X96172Y748154D01*
X96146Y748031D01*
X96117Y747910D01*
X96083Y747789D01*
X96046Y747670D01*
X96005Y747551D01*
X95961Y747435D01*
X95912Y747319D01*
X95860Y747205D01*
X95805Y747093D01*
X95746Y746983D01*
X95683Y746875D01*
X95617Y746768D01*
X95548Y746664D01*
X95475Y746562D01*
X95399Y746463D01*
X95321Y746365D01*
X95239Y746271D01*
X95154Y746179D01*
X95066Y746090D01*
X94975Y746004D01*
X94882Y745920D01*
X94786Y745840D01*
X94688Y745762D01*
X94587Y745688D01*
X94484Y745617D01*
X94379Y745550D01*
X94271Y745485D01*
X94162Y745424D01*
X94051Y745367D01*
X93938Y745313D01*
X93823Y745263D01*
X93707Y745217D01*
X93590Y745174D01*
X93471Y745135D01*
X93351Y745100D01*
X93230Y745068D01*
X93108Y745041D01*
X92985Y745017D01*
X92861Y744997D01*
X92737Y744981D01*
X92612Y744969D01*
X92488Y744961D01*
X92363Y744957D01*
X92237Y744957D01*
X92112Y744961D01*
X91988Y744969D01*
X91863Y744981D01*
X91739Y744997D01*
X91615Y745017D01*
X91492Y745041D01*
X91370Y745068D01*
X91249Y745100D01*
X91129Y745135D01*
X91010Y745174D01*
X90893Y745217D01*
X90777Y745263D01*
X90662Y745313D01*
X90549Y745367D01*
X90438Y745424D01*
X90328Y745485D01*
X90221Y745550D01*
X90116Y745617D01*
X90013Y745688D01*
X89912Y745762D01*
X89814Y745840D01*
X89718Y745920D01*
X89625Y746004D01*
X89534Y746090D01*
X89446Y746179D01*
X89361Y746271D01*
X89279Y746365D01*
X89201Y746463D01*
X89125Y746562D01*
X89052Y746664D01*
X88983Y746768D01*
X88917Y746875D01*
X88854Y746983D01*
X88795Y747093D01*
X88740Y747205D01*
X88688Y747319D01*
X88639Y747435D01*
X88595Y747551D01*
X88554Y747670D01*
X88517Y747789D01*
X88483Y747910D01*
X88454Y748031D01*
X88428Y748154D01*
X88407Y748277D01*
X88389Y748401D01*
X88375Y748525D01*
X88365Y748650D01*
X88359Y748775D01*
X88357Y748900D01*
X88357Y698900D02*
X88359Y699025D01*
X88365Y699150D01*
X88375Y699275D01*
X88389Y699399D01*
X88407Y699523D01*
X88428Y699646D01*
X88454Y699769D01*
X88483Y699890D01*
X88517Y700011D01*
X88554Y700130D01*
X88595Y700249D01*
X88639Y700365D01*
X88688Y700481D01*
X88740Y700595D01*
X88795Y700707D01*
X88854Y700817D01*
X88917Y700925D01*
X88983Y701032D01*
X89052Y701136D01*
X89125Y701238D01*
X89201Y701337D01*
X89279Y701435D01*
X89361Y701529D01*
X89446Y701621D01*
X89534Y701710D01*
X89625Y701796D01*
X89718Y701880D01*
X89814Y701960D01*
X89912Y702038D01*
X90013Y702112D01*
X90116Y702183D01*
X90221Y702250D01*
X90329Y702315D01*
X90438Y702376D01*
X90549Y702433D01*
X90662Y702487D01*
X90777Y702537D01*
X90893Y702583D01*
X91010Y702626D01*
X91129Y702665D01*
X91249Y702700D01*
X91370Y702732D01*
X91492Y702759D01*
X91615Y702783D01*
X91739Y702803D01*
X91863Y702819D01*
X91988Y702831D01*
X92112Y702839D01*
X92237Y702843D01*
X92363Y702843D01*
X92488Y702839D01*
X92612Y702831D01*
X92737Y702819D01*
X92861Y702803D01*
X92985Y702783D01*
X93108Y702759D01*
X93230Y702732D01*
X93351Y702700D01*
X93471Y702665D01*
X93590Y702626D01*
X93707Y702583D01*
X93823Y702537D01*
X93938Y702487D01*
X94051Y702433D01*
X94162Y702376D01*
X94272Y702315D01*
X94379Y702250D01*
X94484Y702183D01*
X94587Y702112D01*
X94688Y702038D01*
X94786Y701960D01*
X94882Y701880D01*
X94975Y701796D01*
X95066Y701710D01*
X95154Y701621D01*
X95239Y701529D01*
X95321Y701435D01*
X95399Y701337D01*
X95475Y701238D01*
X95548Y701136D01*
X95617Y701032D01*
X95683Y700925D01*
X95746Y700817D01*
X95805Y700707D01*
X95860Y700595D01*
X95912Y700481D01*
X95961Y700365D01*
X96005Y700249D01*
X96046Y700130D01*
X96083Y700011D01*
X96117Y699890D01*
X96146Y699769D01*
X96172Y699646D01*
X96193Y699523D01*
X96211Y699399D01*
X96225Y699275D01*
X96235Y699150D01*
X96241Y699025D01*
X96243Y698900D01*
X96241Y698775D01*
X96235Y698650D01*
X96225Y698525D01*
X96211Y698401D01*
X96193Y698277D01*
X96172Y698154D01*
X96146Y698031D01*
X96117Y697910D01*
X96083Y697789D01*
X96046Y697670D01*
X96005Y697551D01*
X95961Y697435D01*
X95912Y697319D01*
X95860Y697205D01*
X95805Y697093D01*
X95746Y696983D01*
X95683Y696875D01*
X95617Y696768D01*
X95548Y696664D01*
X95475Y696562D01*
X95399Y696463D01*
X95321Y696365D01*
X95239Y696271D01*
X95154Y696179D01*
X95066Y696090D01*
X94975Y696004D01*
X94882Y695920D01*
X94786Y695840D01*
X94688Y695762D01*
X94587Y695688D01*
X94484Y695617D01*
X94379Y695550D01*
X94271Y695485D01*
X94162Y695424D01*
X94051Y695367D01*
X93938Y695313D01*
X93823Y695263D01*
X93707Y695217D01*
X93590Y695174D01*
X93471Y695135D01*
X93351Y695100D01*
X93230Y695068D01*
X93108Y695041D01*
X92985Y695017D01*
X92861Y694997D01*
X92737Y694981D01*
X92612Y694969D01*
X92488Y694961D01*
X92363Y694957D01*
X92237Y694957D01*
X92112Y694961D01*
X91988Y694969D01*
X91863Y694981D01*
X91739Y694997D01*
X91615Y695017D01*
X91492Y695041D01*
X91370Y695068D01*
X91249Y695100D01*
X91129Y695135D01*
X91010Y695174D01*
X90893Y695217D01*
X90777Y695263D01*
X90662Y695313D01*
X90549Y695367D01*
X90438Y695424D01*
X90328Y695485D01*
X90221Y695550D01*
X90116Y695617D01*
X90013Y695688D01*
X89912Y695762D01*
X89814Y695840D01*
X89718Y695920D01*
X89625Y696004D01*
X89534Y696090D01*
X89446Y696179D01*
X89361Y696271D01*
X89279Y696365D01*
X89201Y696463D01*
X89125Y696562D01*
X89052Y696664D01*
X88983Y696768D01*
X88917Y696875D01*
X88854Y696983D01*
X88795Y697093D01*
X88740Y697205D01*
X88688Y697319D01*
X88639Y697435D01*
X88595Y697551D01*
X88554Y697670D01*
X88517Y697789D01*
X88483Y697910D01*
X88454Y698031D01*
X88428Y698154D01*
X88407Y698277D01*
X88389Y698401D01*
X88375Y698525D01*
X88365Y698650D01*
X88359Y698775D01*
X88357Y698900D01*
D49*
X65300Y733900D03*
X65300Y713900D03*
D50*
X294640Y172720D03*
X294640Y121920D03*
X243840Y172720D03*
X243840Y121920D03*
X294640Y340360D03*
X294640Y289560D03*
X243840Y340360D03*
X243840Y289560D03*
D51*
X511534Y471794D02*
X518386Y471794D01*
X511534Y471794D02*
X511534Y483246D01*
X518386Y483246D01*
X518386Y471794D01*
X518386Y475955D02*
X511534Y475955D01*
X511534Y480116D02*
X518386Y480116D01*
X530634Y471794D02*
X537486Y471794D01*
X530634Y471794D02*
X530634Y483246D01*
X537486Y483246D01*
X537486Y471794D01*
X537486Y475955D02*
X530634Y475955D01*
X530634Y480116D02*
X537486Y480116D01*
X1461544Y780426D02*
X1468396Y780426D01*
X1468396Y768974D01*
X1461544Y768974D01*
X1461544Y780426D01*
X1461544Y773135D02*
X1468396Y773135D01*
X1468396Y777296D02*
X1461544Y777296D01*
X1449296Y780426D02*
X1442444Y780426D01*
X1449296Y780426D02*
X1449296Y768974D01*
X1442444Y768974D01*
X1442444Y780426D01*
X1442444Y773135D02*
X1449296Y773135D01*
X1449296Y777296D02*
X1442444Y777296D01*
X1442444Y718174D02*
X1449296Y718174D01*
X1442444Y718174D02*
X1442444Y729626D01*
X1449296Y729626D01*
X1449296Y718174D01*
X1449296Y722335D02*
X1442444Y722335D01*
X1442444Y726496D02*
X1449296Y726496D01*
X1461544Y718174D02*
X1468396Y718174D01*
X1461544Y718174D02*
X1461544Y729626D01*
X1468396Y729626D01*
X1468396Y718174D01*
X1468396Y722335D02*
X1461544Y722335D01*
X1461544Y726496D02*
X1468396Y726496D01*
X1377326Y664436D02*
X1377326Y657584D01*
X1365874Y657584D01*
X1365874Y664436D01*
X1377326Y664436D01*
X1377326Y661745D02*
X1365874Y661745D01*
X1377326Y676684D02*
X1377326Y683536D01*
X1377326Y676684D02*
X1365874Y676684D01*
X1365874Y683536D01*
X1377326Y683536D01*
X1377326Y680845D02*
X1365874Y680845D01*
X785506Y886184D02*
X785506Y893036D01*
X785506Y886184D02*
X774054Y886184D01*
X774054Y893036D01*
X785506Y893036D01*
X785506Y890345D02*
X774054Y890345D01*
X785506Y905284D02*
X785506Y912136D01*
X785506Y905284D02*
X774054Y905284D01*
X774054Y912136D01*
X785506Y912136D01*
X785506Y909445D02*
X774054Y909445D01*
D29*
X431780Y923290D03*
X416580Y923290D03*
D52*
X673100Y601980D03*
D53*
X784860Y601980D03*
D52*
X995680Y546100D03*
D53*
X995680Y434340D03*
D54*
X673100Y259100D03*
X673100Y274300D03*
D52*
X1031240Y952500D03*
D53*
X1031240Y840740D03*
D52*
X965200Y673100D03*
D53*
X1076960Y673100D03*
D52*
X1300480Y558800D03*
D53*
X1300480Y447040D03*
D52*
X1221740Y558800D03*
D53*
X1221740Y447040D03*
D52*
X1338580Y558800D03*
D53*
X1338580Y447040D03*
D52*
X1374140Y558800D03*
D53*
X1374140Y447040D03*
D52*
X1262380Y558800D03*
D53*
X1262380Y447040D03*
D54*
X274320Y652800D03*
X274320Y668000D03*
D52*
X243840Y701040D03*
D53*
X355600Y701040D03*
D51*
X891264Y197474D02*
X898116Y197474D01*
X891264Y197474D02*
X891264Y208926D01*
X898116Y208926D01*
X898116Y197474D01*
X898116Y201635D02*
X891264Y201635D01*
X891264Y205796D02*
X898116Y205796D01*
X910364Y197474D02*
X917216Y197474D01*
X910364Y197474D02*
X910364Y208926D01*
X917216Y208926D01*
X917216Y197474D01*
X917216Y201635D02*
X910364Y201635D01*
X910364Y205796D02*
X917216Y205796D01*
X395196Y517514D02*
X388344Y517514D01*
X388344Y528966D01*
X395196Y528966D01*
X395196Y517514D01*
X395196Y521675D02*
X388344Y521675D01*
X388344Y525836D02*
X395196Y525836D01*
X407444Y517514D02*
X414296Y517514D01*
X407444Y517514D02*
X407444Y528966D01*
X414296Y528966D01*
X414296Y517514D01*
X414296Y521675D02*
X407444Y521675D01*
X407444Y525836D02*
X414296Y525836D01*
D52*
X1409700Y558800D03*
D53*
X1409700Y447040D03*
D51*
X849856Y476874D02*
X843004Y476874D01*
X843004Y488326D01*
X849856Y488326D01*
X849856Y476874D01*
X849856Y481035D02*
X843004Y481035D01*
X843004Y485196D02*
X849856Y485196D01*
X862104Y476874D02*
X868956Y476874D01*
X862104Y476874D02*
X862104Y488326D01*
X868956Y488326D01*
X868956Y476874D01*
X868956Y481035D02*
X862104Y481035D01*
X862104Y485196D02*
X868956Y485196D01*
D29*
X815360Y434340D03*
X830560Y434340D03*
D54*
X543560Y309900D03*
X543560Y325100D03*
X655320Y444520D03*
X655320Y459720D03*
D29*
X632480Y266700D03*
X647680Y266700D03*
D54*
X873760Y139680D03*
X873760Y124480D03*
X129540Y657880D03*
X129540Y673080D03*
D29*
X901720Y452120D03*
X916920Y452120D03*
X795040Y568960D03*
X810240Y568960D03*
X475000Y431800D03*
X490200Y431800D03*
D52*
X383540Y581660D03*
D53*
X495300Y581660D03*
D54*
X563880Y469920D03*
X563880Y485120D03*
D52*
X452120Y525653D03*
D53*
X563880Y525653D03*
D55*
X342900Y211586D03*
X844400Y399768D03*
X521213Y177217D03*
X248920Y651792D03*
X519870Y352350D03*
X590110Y358850D03*
X319026Y728980D03*
X122934Y586740D03*
X810756Y520700D03*
X314936Y762000D03*
X444500Y428230D03*
X488176Y665480D03*
X480060Y889000D03*
X152400Y642620D03*
X227612Y713740D03*
X584200Y220980D03*
X1452880Y165100D03*
X1224280Y170180D03*
X995680Y170180D03*
X995680Y322580D03*
X1224280Y322580D03*
X1452880Y322580D03*
X1480820Y622300D03*
X218440Y472440D03*
X381000Y774700D03*
X126519Y639599D03*
X510822Y583212D03*
X741680Y185420D03*
X565424Y538114D03*
M02*
